<svg width="40" height="40" viewBox="0 0 40 40" fill="none" xmlns="http://www.w3.org/2000/svg">
<circle cx="20" cy="20" r="20" fill="white"/>
<path d="M35 28.5332C33.9087 28.8202 33.2337 28.5458 32.6281 27.6053L28.3212 21.4428L27.6987 20.5896L22.6691 27.6257C22.0944 28.4721 21.4916 28.8406 20.4191 28.541L26.8597 19.5997L20.8634 11.5233C21.8947 11.3158 22.6072 11.4215 23.24 12.3765L27.7072 18.6156L32.2072 12.4104C32.7837 11.564 33.4034 11.2421 34.4384 11.5543L32.1134 14.7422L28.9634 18.984C28.5884 19.4688 28.64 19.8004 28.985 20.2687L35 28.5332ZM5.0075 19.4504L5.53437 16.7705C6.96875 11.467 12.8469 9.26324 16.9006 12.5403C19.2697 14.4678 19.8584 17.1942 19.7412 20.2483H6.3875C6.18688 25.7457 10.0128 29.0636 14.8906 27.3707C16.6016 26.7764 17.6094 25.3909 18.1137 23.6573C18.3697 22.7886 18.7934 22.6528 19.5828 22.901C19.1797 25.069 18.2703 26.8801 16.3484 28.0135C13.4769 29.7102 9.37812 29.1615 7.22187 26.8035C5.9375 25.4355 5.40688 23.7019 5.16875 21.8481C5.13125 21.5417 5.05625 21.2499 5 20.9561C5.005 20.4545 5.0075 19.9529 5.0075 19.4514V19.4504ZM6.41188 19.082H18.4794C18.4006 15.1068 16.0072 12.2834 12.7362 12.2592C9.14562 12.2301 6.5675 14.9865 6.41188 19.082Z" fill="black"/>
</svg>
