<svg width="19" height="44" viewBox="0 0 19 44" fill="none" xmlns="http://www.w3.org/2000/svg">
<path d="M10.03 0L11.0812 2.20075C11.3175 2.60687 11.5735 2.96635 11.8751 3.30113C12.7552 4.28213 13.591 5.30979 14.3418 6.41017C16.1229 9.01704 17.3243 11.912 18.1822 15.043C18.6967 16.9557 18.9762 18.9177 18.9971 20.9016C19.0832 26.833 17.2591 31.926 13.5811 36.1587C12.9805 36.8283 12.3379 37.4484 11.6486 38C11.2843 38 11.112 37.6885 10.9618 37.4018C10.6824 36.8763 10.5113 36.2767 10.4251 35.6799C10.2959 34.9623 10.2109 34.2447 10.2528 33.5038V33.169C10.2233 33.0977 9.90199 0.168761 10.03 0Z" fill="#599636"/>
<path d="M9.73356 0.0477813C9.68549 -0.0494396 9.63742 0.0241705 9.58935 0.071392C9.6127 0.557496 9.44514 0.990823 9.18281 1.40471C8.89439 1.81581 8.51258 2.13108 8.1294 2.46997C6.00059 4.33383 4.32501 6.58519 2.98318 9.10321C1.19773 12.492 0.277537 16.1239 0.0165864 19.9475C-0.102901 21.3266 0.447841 26.1932 0.877723 27.5974C2.05063 31.3251 4.15746 34.4487 6.88645 37.1597C7.55668 37.8125 8.27361 38.4181 9.01526 39C9.23088 39 9.25423 38.8056 9.30367 38.6611C9.39821 38.352 9.47028 38.0364 9.5193 37.7167L10 34.0862L9.73356 0.0477813Z" fill="#6CAC48"/>
<path d="M10.519 39.6313C10.5576 39.0777 10.7694 38.6183 11 38.1603C10.7683 38.0399 10.5962 37.8005 10.4617 37.5334C10.3458 37.2926 10.2499 37.0034 10.1748 36.7377C9.90568 35.7247 9.84832 34.662 9.7711 33.6269V33C9.67512 33.0969 9.65527 33.9161 9.65527 34.0379C9.59913 35.1319 9.4834 36.2198 9.30888 37.294C9.25152 37.7285 9.21291 38.1617 9 38.5477C9 38.5962 9 38.6446 9.01875 38.7166C9.36514 39.9952 9.46001 41.2974 9.51848 42.6245V43.1088C9.51848 43.6873 9.49972 43.5655 9.88252 43.7592C10.037 43.8312 10.209 43.8561 10.3635 44C10.4793 44 10.4981 43.8796 10.4981 43.7827L10.4407 42.987V40.7674C10.422 40.3799 10.4793 39.9952 10.5179 39.6327L10.519 39.6313Z" fill="#C2BFBF"/>
</svg>
