<svg width="39" height="39" viewBox="0 0 39 39" fill="none" xmlns="http://www.w3.org/2000/svg">
<path d="M17.862 0.520454C18.837 -0.0316401 20.0802 -0.0340776 21.0308 0.520454L35.5875 8.7263C36.4979 9.23817 37.1073 10.2534 37.0988 11.3027V27.7559C37.1049 28.8491 36.4358 29.8862 35.4754 30.3884L20.9967 38.5564C20.5014 38.8301 19.942 38.9662 19.3764 38.9505C18.8108 38.9349 18.2597 38.7681 17.7804 38.4675L13.4355 35.9568C13.1394 35.7801 12.8067 35.64 12.597 35.3535C12.7823 35.1049 13.1113 35.0732 13.3795 34.9635C13.984 34.771 14.5373 34.476 15.093 34.164C15.2332 34.0665 15.405 34.1031 15.5391 34.1909L19.2441 36.3334C19.5086 36.4858 19.7767 36.2847 20.0034 36.1567L34.2201 28.1337C34.3956 28.0484 34.4931 27.8631 34.4785 27.6705V11.3759C34.498 11.1565 34.3724 10.9566 34.1738 10.8676L19.7316 2.73492C19.6484 2.67736 19.5496 2.64642 19.4484 2.6462C19.3472 2.64598 19.2484 2.6765 19.1649 2.7337L4.74341 10.8835C4.54841 10.9725 4.41435 11.1699 4.43872 11.3893V27.684C4.42166 27.8765 4.52403 28.0581 4.70075 28.141L8.55444 30.3165C9.27838 30.7065 10.1668 30.9258 10.9639 30.6394C11.3127 30.508 11.613 30.273 11.8245 29.9661C12.036 29.6592 12.1487 29.2949 12.1473 28.9222L12.151 12.725C12.1339 12.4849 12.3606 12.2863 12.5934 12.3106H14.4459C14.6896 12.3045 14.881 12.5629 14.8481 12.8042L14.8444 29.1038C14.8456 30.5517 14.2509 32.1263 12.9115 32.8368C11.2613 33.69 9.2211 33.5108 7.59041 32.6906L3.44666 30.3993C2.47166 29.9118 1.81719 28.8588 1.82328 27.7668V11.3137C1.82734 10.779 1.97435 10.255 2.24908 9.79621C2.5238 9.3374 2.91624 8.96043 3.38572 8.70436L17.862 0.520454ZM22.0594 11.9255C24.1642 11.8036 26.4177 11.8451 28.3116 12.8822C29.7778 13.6769 30.5907 15.3441 30.6175 16.9748C30.576 17.1942 30.3469 17.316 30.1373 17.3002C29.5279 17.299 28.9161 17.3087 28.3043 17.2965C28.0447 17.3063 27.8948 17.0674 27.8619 16.8383C27.6864 16.0583 27.261 15.2868 26.5273 14.9102C25.4012 14.346 24.0947 14.374 22.8662 14.3862C21.9692 14.4349 21.0052 14.5117 20.2459 15.0382C19.6609 15.438 19.4854 16.257 19.6938 16.8931C19.8888 17.3599 20.4287 17.5098 20.8687 17.6488C23.4061 18.3118 26.0935 18.2581 28.5834 19.1198C29.6132 19.4757 30.6211 20.1679 30.9746 21.2465C31.4353 22.692 31.2342 24.4201 30.2068 25.5804C29.3731 26.5359 28.1593 27.0429 26.9466 27.3378C25.3342 27.6974 23.6621 27.7059 22.0253 27.545C20.486 27.3695 18.8846 26.9649 17.6963 25.9168C16.6798 25.0344 16.185 23.6596 16.2338 22.3336C16.246 22.1094 16.469 21.9534 16.6847 21.9717H18.5128C18.759 21.9546 18.9394 22.1667 18.9516 22.3982C19.0649 23.1295 19.344 23.9217 19.9924 24.3482C21.2428 25.155 22.8114 25.099 24.2422 25.1221C25.428 25.0697 26.7589 25.0539 27.7278 24.269C28.2397 23.8217 28.3896 23.0746 28.2519 22.4311C28.102 21.8876 27.5206 21.6353 27.0331 21.4561C24.5286 20.664 21.8108 20.9516 19.3306 20.0546C18.3239 19.6987 17.3502 19.026 16.9638 17.9912C16.4239 16.5287 16.6713 14.7165 17.8084 13.5952C18.9053 12.48 20.514 12.0498 22.0375 11.8963L22.0594 11.9255Z" fill="#8CC84B"/>
</svg>
