<svg width="16" height="18" viewBox="0 0 16 18" fill="none" xmlns="http://www.w3.org/2000/svg">
<path d="M0 4.16667C0 3.70644 0.307004 3.33335 0.685716 3.33335L3.05393 3.3329C3.52446 3.31841 3.93957 2.95482 4.09968 2.41691C4.10389 2.40277 4.10873 2.38532 4.12609 2.32203L4.22813 1.94993C4.29058 1.72179 4.34498 1.52303 4.42111 1.34536C4.72186 0.64349 5.27829 0.156101 5.92131 0.0313206C6.08406 -0.000269443 6.25643 -0.000129512 6.45431 2.04879e-05H9.54587C9.74373 -0.000129512 9.91609 -0.000269443 10.0788 0.0313206C10.7219 0.156101 11.2783 0.64349 11.579 1.34536C11.6552 1.52303 11.7096 1.72179 11.772 1.94993L11.874 2.32203C11.8915 2.38532 11.8963 2.40277 11.9004 2.41691C12.0606 2.95482 12.558 3.31886 13.0285 3.33335H15.3143C15.693 3.33335 16 3.70644 16 4.16667C16 4.62691 15.693 5 15.3143 5H0.685716C0.307004 5 0 4.62691 0 4.16667Z" fill="white"/>
<path d="M7.65339 18H8.34662C10.7318 18 11.9244 18 12.6998 17.2879C13.4752 16.5757 13.5546 15.4076 13.7132 13.0713L13.9418 9.70477C14.0279 8.43715 14.071 7.8033 13.6819 7.40165C13.2929 7 12.6361 7 11.3222 7H4.67775C3.36395 7 2.70705 7 2.31804 7.40165C1.92905 7.8033 1.97209 8.43715 2.05818 9.70477L2.2868 13.0713C2.44546 15.4076 2.52479 16.5757 3.30019 17.2879C4.0756 18 5.26818 18 7.65339 18Z" fill="white"/>
</svg>
