<svg width="25" height="20" viewBox="0 0 25 20" fill="none" xmlns="http://www.w3.org/2000/svg">
<path fill-rule="evenodd" clip-rule="evenodd" d="M1.46446 1.46446C1.49012e-07 2.92894 0 5.28595 0 10C0 14.714 1.49012e-07 17.0711 1.46446 18.5355C2.92894 20 5.28595 20 10 20H15C19.714 20 22.0711 20 23.5355 18.5355C25 17.0711 25 14.714 25 10C25 5.28595 25 2.92894 23.5355 1.46446C22.0711 -1.49012e-07 19.714 0 15 0H10C5.28595 0 2.92894 -1.49012e-07 1.46446 1.46446ZM20.7203 4.39982C21.0516 4.79759 20.9979 5.38874 20.6001 5.72021L17.8546 8.00825C16.7466 8.9315 15.8486 9.67988 15.056 10.1896C14.2304 10.7206 13.4264 11.0561 12.5 11.0561C11.5736 11.0561 10.7696 10.7206 9.94398 10.1896C9.1514 9.67988 8.25339 8.9315 7.14545 8.00825L4.39982 5.72021C4.00206 5.38874 3.94833 4.79759 4.27979 4.39982C4.61126 4.00206 5.20241 3.94833 5.60018 4.27979L8.29879 6.52864C9.46499 7.5005 10.2746 8.173 10.9582 8.61262C11.6199 9.03825 12.0686 9.18113 12.5 9.18113C12.9314 9.18113 13.3801 9.03825 14.0418 8.61262C14.7254 8.173 15.535 7.5005 16.7013 6.52864L19.3999 4.27979C19.7976 3.94833 20.3888 4.00206 20.7203 4.39982Z" fill="white"/>
</svg>
