<svg width="22" height="21" viewBox="0 0 22 21" fill="none" xmlns="http://www.w3.org/2000/svg">
<mask id="path-1-inside-1_359_13" fill="white">
<path d="M20.723 15.5499C21.6172 13.6322 21.9227 11.4924 21.6008 9.40114C21.2789 7.30983 20.3441 5.36093 18.9146 3.8009C17.4851 2.24087 15.6251 1.13977 13.5698 0.636841C11.5145 0.133913 9.35625 0.251746 7.36792 0.975439C5.3796 1.69913 3.65052 2.99618 2.39935 4.70257C1.14817 6.40895 0.431098 8.44803 0.338802 10.562C0.246507 12.6759 0.783134 14.7697 1.88082 16.5786C2.97852 18.3876 4.58797 19.8304 6.50566 20.7246L8.2574 16.968C7.0827 16.4202 6.09682 15.5364 5.42442 14.4283C4.75201 13.3202 4.4233 12.0377 4.47983 10.7428C4.53637 9.44785 4.97562 8.19879 5.74204 7.15353C6.50846 6.10827 7.56762 5.31375 8.78559 4.87044C10.0036 4.42714 11.3256 4.35496 12.5846 4.66303C13.8436 4.97111 14.983 5.64559 15.8586 6.60121C16.7343 7.55682 17.3069 8.75063 17.5041 10.0317C17.7013 11.3127 17.5141 12.6235 16.9664 13.7982L20.723 15.5499Z"/>
</mask>
<path d="M20.723 15.5499C21.6172 13.6322 21.9227 11.4924 21.6008 9.40114C21.2789 7.30983 20.3441 5.36093 18.9146 3.8009C17.4851 2.24087 15.6251 1.13977 13.5698 0.636841C11.5145 0.133913 9.35625 0.251746 7.36792 0.975439C5.3796 1.69913 3.65052 2.99618 2.39935 4.70257C1.14817 6.40895 0.431098 8.44803 0.338802 10.562C0.246507 12.6759 0.783134 14.7697 1.88082 16.5786C2.97852 18.3876 4.58797 19.8304 6.50566 20.7246L8.2574 16.968C7.0827 16.4202 6.09682 15.5364 5.42442 14.4283C4.75201 13.3202 4.4233 12.0377 4.47983 10.7428C4.53637 9.44785 4.97562 8.19879 5.74204 7.15353C6.50846 6.10827 7.56762 5.31375 8.78559 4.87044C10.0036 4.42714 11.3256 4.35496 12.5846 4.66303C13.8436 4.97111 14.983 5.64559 15.8586 6.60121C16.7343 7.55682 17.3069 8.75063 17.5041 10.0317C17.7013 11.3127 17.5141 12.6235 16.9664 13.7982L20.723 15.5499Z" stroke="white" stroke-width="20" mask="url(#path-1-inside-1_359_13)"/>
</svg>
