<svg width="25" height="25" viewBox="0 0 25 25" fill="none" xmlns="http://www.w3.org/2000/svg">
<path d="M6.25163 0.34943C7.68164 1.39228 8.79594 2.81647 9.74868 4.1781L10.3022 4.98402L10.8243 5.75361C11.3607 6.53817 11.2326 7.60936 10.5039 8.23997L8.06068 10.054C7.81851 10.2339 7.738 10.5606 7.88324 10.8249C8.43602 11.8309 9.42082 13.3279 10.5478 14.4546C11.6759 15.5825 13.244 16.6306 14.3194 17.2455C14.5983 17.4049 14.949 17.3126 15.1253 17.0441L16.7147 14.6235C17.3243 13.8127 18.4624 13.6355 19.2898 14.208L20.121 14.7823C21.6718 15.8588 23.3397 17.082 24.6135 18.7129C25.0412 19.2605 25.1047 19.9765 24.8496 20.5717C23.8018 23.0162 21.1501 25.098 18.3918 24.9964L18.0155 24.9755L17.7238 24.9504L17.401 24.9142L17.0484 24.8653L16.6674 24.8019C16.6016 24.7901 16.5346 24.7775 16.4666 24.7643L16.0454 24.6759C15.9731 24.6597 15.8997 24.6426 15.8253 24.6248L15.3669 24.5075L14.8854 24.3689L14.3821 24.207C12.0701 23.4239 9.13647 21.8842 6.1265 18.8749C3.11649 15.8656 1.5764 12.9326 0.793133 10.6212L0.631243 10.118L0.492529 9.63658L0.375253 9.1783L0.277677 8.74447C0.248241 8.60409 0.221799 8.468 0.19806 8.33643L0.134665 7.95549L0.0857528 7.603L0.0495836 7.28027L0.0244187 6.98865L0.0035007 6.61243C-0.0976642 3.86393 2.00828 1.19338 4.44204 0.150577C5.01313 -0.09412 5.70482 -0.0493394 6.25163 0.34943ZM16.4375 4.84957L16.5828 4.86663C17.4942 5.0273 18.3315 5.47235 18.9745 6.13796C19.6173 6.80357 20.0329 7.65559 20.1618 8.57191C20.2581 9.25659 19.7809 9.88958 19.096 9.98585C18.4601 10.0752 17.8687 9.67028 17.7105 9.06377L17.6818 8.92037C17.6266 8.52767 17.4484 8.16251 17.1729 7.87726C16.9433 7.63953 16.6558 7.46746 16.3403 7.37685L16.1479 7.33239C15.4669 7.21233 15.0121 6.56302 15.1322 5.88212C15.2437 5.24985 15.8117 4.81266 16.4375 4.84957ZM16.4479 1.04436C17.4345 1.04436 18.4116 1.23864 19.3231 1.61613C20.2347 1.99362 21.0629 2.54691 21.7606 3.24441C22.4582 3.94191 23.0117 4.76997 23.3892 5.68129C23.7667 6.59261 23.9611 7.56938 23.9611 8.55579C23.9611 9.24719 23.4005 9.80769 22.7089 9.80769C22.0667 9.80769 21.5374 9.3244 21.4651 8.70179L21.4567 8.55579C21.4567 7.89818 21.3272 7.24701 21.0754 6.63946C20.8237 6.0319 20.4548 5.47987 19.9896 5.01486C19.5245 4.54987 18.9725 4.18101 18.3646 3.92935C17.8582 3.71964 17.3216 3.59474 16.7761 3.55893L16.4479 3.54817C15.7563 3.54817 15.1957 2.98767 15.1957 2.29627C15.1957 1.60486 15.7563 1.04436 16.4479 1.04436Z" fill="white"/>
</svg>
