<svg width="25" height="25" viewBox="0 0 25 25" fill="none" xmlns="http://www.w3.org/2000/svg">
<path fill-rule="evenodd" clip-rule="evenodd" d="M5.03257 4.75886C3.00516 6.71502 1.74419 9.46024 1.74419 12.5C1.74419 18.4402 6.55973 23.2558 12.5 23.2558C12.6483 23.2558 12.7958 23.2528 12.9427 23.2469C12.7037 22.1869 12.6714 20.7617 13.4 19.3887C14.1583 17.9599 15.7281 17.3398 16.8824 17.056C17.4872 16.9074 18.0474 16.8341 18.4548 16.7976C18.6595 16.7792 18.8283 16.7699 18.9479 16.7651C19.0077 16.7628 19.0555 16.7615 19.0895 16.7609L19.1301 16.7603L19.14 16.7602C21.0848 16.74 21.9609 16.1076 22.4259 15.5042C22.8231 14.9888 22.9731 14.4734 23.1252 13.9506C23.1445 13.8841 23.164 13.8174 23.1838 13.7507C23.2314 13.3403 23.2558 12.923 23.2558 12.5C23.2558 9.56502 22.0802 6.90462 20.1743 4.96393C20.1642 5.00353 20.1538 5.04256 20.1433 5.08093C19.954 5.77042 19.6483 6.47807 19.316 6.98227C19.0185 7.43387 18.4413 7.88944 17.9622 8.23365C17.6469 8.46021 17.3186 8.65267 17.0208 8.82428C16.9849 8.84502 16.9494 8.86544 16.9143 8.88558C16.6492 9.03812 16.4106 9.17531 16.1809 9.32701C15.6788 9.65878 15.2903 10.0158 15.0288 10.555C14.9373 10.7438 14.9344 10.928 14.9886 11.1252C15.0753 11.4409 15.1344 11.796 15.1353 12.1581C15.1373 12.9128 14.7529 13.5252 14.2588 13.9234C13.7707 14.3169 13.1327 14.5419 12.4905 14.5349C9.6355 14.5036 7.88014 12.1867 7.64863 9.60986C7.55652 8.5848 7.10712 7.54792 6.53966 6.64169C6.01852 5.80942 5.43133 5.14064 5.03257 4.75886ZM6.38959 3.64723C6.87221 4.13328 7.47772 4.85327 8.01795 5.71603C8.66623 6.75135 9.26016 8.05534 9.38581 9.45378C9.56135 11.4076 10.7964 12.7721 12.5095 12.7907C12.7451 12.7934 12.9898 12.706 13.1644 12.5653C13.3331 12.4294 13.3915 12.2858 13.3912 12.1627C13.3907 11.9819 13.3602 11.782 13.3066 11.587C13.1658 11.074 13.1457 10.4409 13.4595 9.79385C13.9072 8.87083 14.5707 8.30044 15.2195 7.87176C15.4976 7.68803 15.786 7.5223 16.0463 7.37273C16.0814 7.35258 16.1159 7.33271 16.1499 7.31314C16.4466 7.14207 16.7072 6.98766 16.9444 6.81717C17.4457 6.45703 17.7628 6.16955 17.8595 6.02264C18.0717 5.70064 18.3103 5.16899 18.4613 4.61919C18.5809 4.18357 18.6141 3.84926 18.6029 3.64205C16.869 2.44513 14.7663 1.74419 12.5 1.74419C10.2303 1.74419 8.12498 2.44715 6.38959 3.64723ZM24.9177 13.9422C24.9721 13.469 25 12.9878 25 12.5C25 5.59644 19.4036 0 12.5 0C5.59644 0 0 5.59644 0 12.5C0 19.4036 5.59644 25 12.5 25C18.8493 25 24.0929 20.2662 24.894 14.1353C24.9152 14.0615 24.9336 14 24.9501 13.9536L24.9177 13.9422ZM21.6915 18.0891C20.999 18.3429 20.1642 18.4938 19.1583 18.5044H19.1491H19.146L19.1221 18.5048C19.0994 18.5052 19.0638 18.506 19.0167 18.5079C18.9224 18.5117 18.783 18.5193 18.6107 18.5348C18.2641 18.5658 17.795 18.6279 17.2987 18.7499C16.2508 19.0074 15.3314 19.47 14.9407 20.2063C14.411 21.2043 14.4866 22.2902 14.6842 23.034C17.6481 22.4226 20.1664 20.5917 21.6915 18.0891Z" fill="white"/>
</svg>
